# xmcd CD database file
# Copyright (C) 1998 Ti Kan
# 
# Track frame offsets:
#     183
#     12953
#     27603
#     45473
#     57753
#     70728
#     90203
#     105190
#     122103
#     138453
#     151858
#     176648
#     189340
#     202178
#     221190
# 
# Disc length: 3257 seconds
# 
# Revision: 1
# Processed by: cddbd v1.4b41PL1 Copyright (c) Steve Scherf et al.
# Submitted via: DiscPlay 4.0.4
# 
DISCID=c90cb70f
DTITLE=Various Artist - Get in Line and Dance - Volume Two - Funny Lines
DYEAR=1900
DGENRE=
TTITLE0=Whiskey Drinking Woman/David Woods
TTITLE1=Everything's Big in Texas ('cept for Little Ol Me)/Mark Reichow
TTITLE2=The Step Momma from Hell/Jim Crowston
TTITLE3=Daddy's Dressing Up Again/Tennessee Whiskey
TTITLE4=3 Time Loser/Hollywood Hillbillies
TTITLE5=Parisian Cowboy/Rhinestone Calais and The Western Quarter
TTITLE6=If You Can't Fight (Wear a Big Hat)/Marty Ross
TTITLE7=Crystal Chandelier (Gets up My Nose)/Alan Cameron
TTITLE8=Tough Guys Don't Dance/Marty Ross
TTITLE9=Country Mile/Debra Hart
TTITLE10=Be a Yodel-Lay-Dee Line Dancer/Big Al
TTITLE11=Loan Me a Lincoln/Michael Stanton
TTITLE12=Great Big Knockers/Keith Munday
TTITLE13=Put 'Em Where the Sun Don't Shine/Paul Griggs
TTITLE14=I've Forgotten What It Is I Drink to Forget/Harry Lang
EXTD=
EXTT0=
EXTT1=
EXTT2=
EXTT3=
EXTT4=
EXTT5=
EXTT6=
EXTT7=
EXTT8=
EXTT9=
EXTT10=
EXTT11=
EXTT12=
EXTT13=
EXTT14=
PLAYORDER=
